Coordinates
version=1
nRows=7
nColumns=40
inDegrees=yes

Units are S.I. units (second, meters, Newtons, ...)
Angles are in degrees.

endheader
time	pelvis_tilt	pelvis_list	pelvis_rotation	pelvis_tx	pelvis_ty	pelvis_tz	hip_flexion_r	hip_adduction_r	hip_rotation_r	knee_angle_r	knee_angle_r_beta	ankle_angle_r	subtalar_angle_r	mtp_angle_r	hip_flexion_l	hip_adduction_l	hip_rotation_l	knee_angle_l	knee_angle_l_beta	ankle_angle_l	subtalar_angle_l	mtp_angle_l	lumbar_extension	lumbar_bending	lumbar_rotation	arm_flex_r	arm_add_r	arm_rot_r	elbow_flex_r	pro_sup_r	wrist_flex_r	wrist_dev_r	arm_flex_l	arm_add_l	arm_rot_l	elbow_flex_l	pro_sup_l	wrist_flex_l	wrist_dev_l
     45.79500000	     -4.22480421	     -4.86598550	     -0.23463337	      1.06662181	      0.93400521	      0.40348489	     38.65196898	     -5.97140255	     -6.92435851	     61.61298233	     61.61298233	      1.66616690	    -18.90808342	     14.29020048	     11.51996623	     -4.97760110	     -5.51906163	     19.90942405	     19.90942405	     14.32275825	    -11.64371603	      1.43658778	    -12.72249265	      5.84886394	      4.02016583	      4.84833673	    -13.48287807	     -4.74387017	     27.24315885	     46.71635488	      0.00000000	      0.00000000	     17.32134870	    -15.86257733	     -5.67600604	     65.49887059	     47.74323475	      0.00000000	      0.00000000
     45.80657143	     -4.43026470	     -5.06449939	     -0.52845404	      1.06553722	      0.93404341	      0.40390393	     39.00147312	     -5.36145028	     -7.20503601	     58.21254351	     58.21254351	      0.58336400	    -18.58375019	     10.08194431	     10.93056272	     -5.24851909	     -5.90870894	     19.41399649	     19.41399649	     14.46955084	    -11.31234216	      0.86236881	    -12.76987285	      6.03530966	      3.49289497	      4.24494137	    -13.28968258	     -5.83635441	     24.58532213	     46.90323105	      0.00000000	      0.00000000	     17.54345115	    -17.10949384	     -5.41669540	     69.06654259	     47.77938753	      0.00000000	      0.00000000
     45.81814286	     -4.62205810	     -5.30150801	     -0.79782591	      1.06455438	      0.93412081	      0.40437301	     39.23289189	     -4.62084965	     -7.33123028	     54.65299083	     54.65299083	      0.65239807	    -17.75639311	      9.70536149	     10.28025606	     -5.50775272	     -6.08535196	     18.83565595	     18.83565595	     14.70459279	    -11.20212075	      0.85319533	    -12.78842820	      6.31459223	      3.57335355	      2.64517294	    -13.50559139	     -6.02633188	     23.72747672	     46.94068039	      0.00000000	      0.00000000	     18.83222451	    -17.35601840	     -5.78384829	     70.45879499	     47.83524324	      0.00000000	      0.00000000
     45.82971429	     -4.79407128	     -5.39265670	     -1.06917461	      1.06379537	      0.93397364	      0.40479434	     39.05682024	     -4.13609712	     -7.58251286	     50.45167240	     50.45167240	     -0.82087566	    -16.94618873	      4.22534434	      9.59623059	     -5.63277007	     -6.45460153	     18.26851749	     18.26851749	     14.84689979	    -10.92205816	      0.40961864	    -12.88279526	      6.39977656	      3.44813085	      1.25835970	    -13.50341086	     -7.87986356	     22.91207133	     47.11847971	      0.00000000	      0.00000000	     19.31790037	    -18.03425744	     -6.02547940	     73.81106798	     47.91598993	      0.00000000	      0.00000000
     45.84128571	     -4.97952707	     -5.57101236	     -1.26652125	      1.06317967	      0.93377682	      0.40521885	     38.80654261	     -3.58343340	     -7.88662977	     46.29683934	     46.29683934	     -0.49865690	    -15.09674979	      4.08024505	      8.96065071	     -5.81914848	     -6.60715830	     17.76727113	     17.76727113	     15.12097280	    -10.78152207	      0.36141628	    -12.84518503	      6.62631014	      3.45731956	     -0.32661301	    -13.70398386	     -8.07271465	     22.29044515	     47.14625583	      0.00000000	      0.00000000	     20.49017157	    -18.23687636	     -6.28141089	     75.09145641	     47.96155419	      0.00000000	      0.00000000
     45.85285714	     -5.10752081	     -5.62067063	     -1.46483118	      1.06282614	      0.93344039	      0.40565370	     38.27958724	     -3.19826015	     -8.26509903	     41.94841723	     41.94841723	     -0.19967225	    -12.91359212	      3.61309329	      8.22927231	     -5.87296302	     -6.88464055	     17.23819366	     17.23819366	     15.39179128	    -10.52737075	      0.24509035	    -12.89905662	      6.67499608	      3.64035830	     -2.02900778	    -13.88893439	     -8.39969912	     21.89797307	     47.17418708	      0.00000000	      0.00000000	     21.55150569	    -18.40791292	     -6.42783785	     77.00251394	     48.01112898	      0.00000000	      0.00000000
     45.86442857	     -5.23116015	     -5.60014716	     -1.61975410	      1.06275105	      0.93286101	      0.40612479	     37.52840788	     -2.91696201	     -8.80308475	     37.44581777	     37.44581777	     -0.20304158	    -10.58798784	      2.52881281	      7.45785459	     -5.85605787	     -7.18950916	     16.67110087	     16.67110087	     15.66727062	    -10.12054669	     -0.02901903	    -12.91996862	      6.64367439	      3.68720426	     -3.92510716	    -14.00000023	     -9.18476148	     22.20418841	     47.20575538	      0.00000000	      0.00000000	     22.23531371	    -18.67918023	     -6.40049276	     79.70083514	     48.06568456	      0.00000000	      0.00000000
